# xmcd
#
# Track frame offsets:
#	150
#	28665
#	50380
#	75434
#	94353
#	118589
#	139161
#	164124
#	186403
#	208227
#	230884
#	251769
#	274096
#	293066
#	311967
#
# Disc length: 4401 seconds
#
# Revision: 1
# Processed by: cddbd v1.5.2PL0 Copyright (c) Steve Scherf et al.
# Submitted via: audiograbber 1.83.01
#
DISCID=ec112f0f
DTITLE=R. Kelly - Best of R. Kelly
DYEAR=1999
DGENRE=
TTITLE0=If I Could Turn Back The Hands Of Time
TTITLE1=Satisfy You
TTITLE2=I'm Your Angel
TTITLE3=You Remind Me Of Something
TTITLE4=I Believe I Can Fly
TTITLE5=Did You Ever Thing
TTITLE6=I Can't Sleep Baby
TTITLE7=Cothman City
TTITLE8=Down Low
TTITLE9=Home Alone
TTITLE10=(You To Be) Be Happy
TTITLE11=Half On A Baby
TTITLE12=Get Up On A Room
TTITLE13=Money Makes The World Go Round
TTITLE14=All Of My Days
EXTD=
EXTT0=
EXTT1=
EXTT2=
EXTT3=
EXTT4=
EXTT5=
EXTT6=
EXTT7=
EXTT8=
EXTT9=
EXTT10=
EXTT11=
EXTT12=
EXTT13=
EXTT14=
PLAYORDER=
